<svg xmlns="http://www.w3.org/2000/svg" xmlns:xlink="http://www.w3.org/1999/xlink" width="37" height="37.006" viewBox="0 0 37 37.006">
  <defs>
    <clipPath id="clip-path">
      <path id="路径_7532" data-name="路径 7532" d="M115.5,115.5m-18.5,0A18.5,18.5,0,1,0,115.5,97,18.5,18.5,0,0,0,97,115.5Z" transform="translate(723 242)" fill="#fff" opacity="0.5"/>
    </clipPath>
  </defs>
  <g id="icon_Exchanges_and_Wallets_" data-name="icon_Exchanges and Wallets " transform="translate(-820 -339)">
    <path id="路径_7518" data-name="路径 7518" d="M115.5,115.5m-18.5,0A18.5,18.5,0,1,0,115.5,97,18.5,18.5,0,0,0,97,115.5Z" transform="translate(723 242)" fill="none"/>
    <g id="组_4" data-name="组 4" clip-path="url(#clip-path)">
      <g id="矩形_50" data-name="矩形 50" transform="translate(831 348)" fill="none" stroke="#262626" stroke-width="1">
        <rect width="19" height="13" rx="1" stroke="none"/>
        <rect x="0.5" y="0.5" width="18" height="12" rx="0.5" fill="none"/>
      </g>
      <g id="矩形_51" data-name="矩形 51" transform="translate(827 354)" fill="#fff" stroke="#262626" stroke-width="1">
        <rect width="19" height="13" rx="1" stroke="none"/>
        <rect x="0.5" y="0.5" width="18" height="12" rx="0.5" fill="none"/>
      </g>
      <rect id="矩形_83" data-name="矩形 83" width="17" height="3" transform="translate(828 355)" fill="#43c9ba"/>
    </g>
  </g>
</svg>
