<svg xmlns="http://www.w3.org/2000/svg" width="21" height="20.49" viewBox="0 0 21 20.49">
  <path id="icon_github" d="M84.966,74.492a10.2,10.2,0,0,1-2.01,6.172,10.312,10.312,0,0,1-5.167,3.795.63.63,0,0,1-.54-.1.532.532,0,0,1-.165-.412v-2.88a2.452,2.452,0,0,0-.712-1.942,9.748,9.748,0,0,0,1.395-.24,5.114,5.114,0,0,0,1.282-.54,3.862,3.862,0,0,0,1.1-.9,4.312,4.312,0,0,0,.75-1.44,6.885,6.885,0,0,0,.285-2.062A3.952,3.952,0,0,0,80.1,71.132a3.63,3.63,0,0,0-.1-2.79,1.792,1.792,0,0,0-1.1.15,7.043,7.043,0,0,0-1.26.6l-.517.322a9.749,9.749,0,0,0-5.25,0c-.15-.1-.337-.217-.577-.367a7.643,7.643,0,0,0-1.17-.555,1.942,1.942,0,0,0-1.177-.187,3.675,3.675,0,0,0-.1,2.812,4.072,4.072,0,0,0-1.08,2.827,6.749,6.749,0,0,0,.285,2.047,4.6,4.6,0,0,0,.75,1.44,3.562,3.562,0,0,0,1.1.915,6.278,6.278,0,0,0,1.282.54,9.7,9.7,0,0,0,1.4.24,2.167,2.167,0,0,0-.675,1.41,2.325,2.325,0,0,1-.622.195,3.922,3.922,0,0,1-.75.067,1.62,1.62,0,0,1-.96-.307,2.565,2.565,0,0,1-.75-.855,2.25,2.25,0,0,0-.66-.712,1.89,1.89,0,0,0-.675-.33h-.27a.975.975,0,0,0-.4.06q-.112.067-.067.157a1.035,1.035,0,0,0,.127.187,1.3,1.3,0,0,0,.18.172l.1.06a1.83,1.83,0,0,1,.6.517,3.7,3.7,0,0,1,.427.69l.135.315a1.7,1.7,0,0,0,.6.847,2.25,2.25,0,0,0,.907.39,4.6,4.6,0,0,0,.945.1,4.267,4.267,0,0,0,.75-.052l.315-.052v1.965a.54.54,0,0,1-.18.412.652.652,0,0,1-.547.1,10.267,10.267,0,0,1-5.137-3.817,10.027,10.027,0,0,1-2.01-6.15,10.252,10.252,0,0,1,1.41-5.25,10.394,10.394,0,0,1,3.84-3.84,10.478,10.478,0,0,1,10.5,0,10.394,10.394,0,0,1,3.84,3.84A10.237,10.237,0,0,1,84.966,74.492Z" transform="translate(-63.966 -63.992)" fill="#999"/>
</svg>
