<svg xmlns="http://www.w3.org/2000/svg" width="37" height="37" viewBox="0 0 37 37">
  <g id="icon_Apply_for_Dev_Grant" data-name="icon_Apply for Dev Grant" transform="translate(-820 -339)">
    <circle id="椭圆_1" data-name="椭圆 1" cx="18.5" cy="18.5" r="18.5" transform="translate(820 339)" fill="none"/>
    <g id="组_4983" data-name="组 4983" transform="translate(803.503 344.13)">
      <path id="路径_7583" data-name="路径 7583" d="M236.7,236.283m-4.868,0a4.868,4.868,0,1,0,4.868-4.868A4.868,4.868,0,0,0,231.833,236.283Z" transform="translate(-201.802 -223.424)" fill="#43c9ba"/>
      <path id="路径_7584" data-name="路径 7584" d="M47.059,9.872A1.281,1.281,0,0,0,46.5,8.147L43.651,6.7a.32.32,0,0,1-.174-.242l-.5-3.161A1.278,1.278,0,0,0,41.71,2.214a1.347,1.347,0,0,0-.205.016l-3.156.5a.333.333,0,0,1-.284-.095L35.8.379A1.274,1.274,0,0,0,34.9,0a1.252,1.252,0,0,0-.9.379L31.733,2.64a.333.333,0,0,1-.284.095l-3.156-.5a1.347,1.347,0,0,0-.205-.016A1.27,1.27,0,0,0,26.826,3.3l-.5,3.161a.333.333,0,0,1-.174.242L23.3,8.147a1.281,1.281,0,0,0-.557,1.725L24.2,12.717a.334.334,0,0,1,0,.3l-1.462,2.851a1.281,1.281,0,0,0,.557,1.725l2.851,1.446a.32.32,0,0,1,.174.242l.494,3.161a1.278,1.278,0,0,0,1.262,1.083,1.347,1.347,0,0,0,.205-.016l3.156-.5a.333.333,0,0,1,.284.095l2.262,2.262a1.274,1.274,0,0,0,.9.379,1.252,1.252,0,0,0,.9-.379L38.055,23.1A.333.333,0,0,1,38.339,23l3.156.5a1.347,1.347,0,0,0,.205.016,1.27,1.27,0,0,0,1.262-1.083l.5-3.161a.333.333,0,0,1,.174-.242l2.851-1.446a1.281,1.281,0,0,0,.557-1.725l-1.457-2.845a.334.334,0,0,1,0-.3l1.473-2.851Zm-2.3,3.582L46.212,16.3a.325.325,0,0,1,.021.252.307.307,0,0,1-.163.189L43.22,18.192a1.282,1.282,0,0,0-.684.941l-.5,3.161a.327.327,0,0,1-.373.273l-3.156-.5a1.332,1.332,0,0,0-.2-.016,1.252,1.252,0,0,0-.9.379l-2.262,2.262a.33.33,0,0,1-.463,0l-2.262-2.262a1.3,1.3,0,0,0-.9-.379,1.231,1.231,0,0,0-.2.016l-3.156.5a.331.331,0,0,1-.373-.273l-.494-3.161a1.282,1.282,0,0,0-.684-.941l-2.851-1.446a.325.325,0,0,1-.142-.442l1.457-2.845a1.3,1.3,0,0,0,0-1.168L23.591,9.441a.325.325,0,0,1-.021-.252A.307.307,0,0,1,23.733,9l2.851-1.446a1.282,1.282,0,0,0,.684-.941l.494-3.161a.334.334,0,0,1,.373-.273l3.156.5a1.331,1.331,0,0,0,.2.016,1.252,1.252,0,0,0,.9-.379l2.262-2.262a.33.33,0,0,1,.463,0l2.262,2.262a1.276,1.276,0,0,0,1.11.358l3.156-.5a.331.331,0,0,1,.373.273l.5,3.161a1.282,1.282,0,0,0,.684.941l2.851,1.446a.325.325,0,0,1,.142.442l-1.457,2.845a1.332,1.332,0,0,0,.016,1.173Z" transform="translate(0)" fill="#262626"/>
      <path id="路径_7585" data-name="路径 7585" d="M224.037,216.6a.474.474,0,0,0,.268.084.487.487,0,0,0,.394-.205.476.476,0,1,0-.663.121Zm1.541,1.21a.458.458,0,0,0,.316-.121.48.48,0,0,0,.042-.673.477.477,0,0,0-.71.636A.46.46,0,0,0,225.578,217.806Zm-2.924,10.335a.476.476,0,0,0,.174.92.456.456,0,0,0,.168-.032.476.476,0,0,0-.342-.889Zm1.4-.742a.48.48,0,0,0-.121.663.486.486,0,0,0,.394.205.476.476,0,0,0,.394-.747A.486.486,0,0,0,224.053,227.4Zm-6.054.752a.478.478,0,1,0-.337.894.455.455,0,0,0,.168.032.478.478,0,0,0,.168-.926Zm3.119.368a.475.475,0,0,0-.415.531.481.481,0,0,0,.473.421.216.216,0,0,0,.058-.005.477.477,0,0,0-.116-.947Zm-1.583.005a.479.479,0,0,0-.531.421.471.471,0,0,0,.415.526c.021,0,.037.005.058.005a.481.481,0,0,0,.473-.421A.471.471,0,0,0,219.535,228.524Zm7.153-8.1a.477.477,0,0,0,.463.363.438.438,0,0,0,.116-.016.477.477,0,1,0-.579-.347Zm.668,1.094a.48.48,0,0,0-.479.479.476.476,0,1,0,.479-.479Zm-.089,1.7a.477.477,0,0,0-.231.926.41.41,0,0,0,.116.016.477.477,0,0,0,.463-.363A.468.468,0,0,0,227.267,223.217Zm-.721-4.018a.471.471,0,0,0,.221-.053.481.481,0,1,0-.221.053Zm-1.31,7.147a.476.476,0,0,0,.042.673.484.484,0,0,0,.316.121.466.466,0,0,0,.358-.163.475.475,0,0,0-.042-.673A.48.48,0,0,0,225.237,226.347Zm1.541-1.5a.475.475,0,1,0-.442.841.475.475,0,0,0,.442-.841Zm-11.734-7.032a.473.473,0,1,0-.316-.116A.469.469,0,0,0,215.044,217.811Zm-1.183,7.058a.483.483,0,0,0-.2.647.475.475,0,1,0,.2-.647Zm.079-1.278a.477.477,0,1,0-.463.594.438.438,0,0,0,.116-.016A.471.471,0,0,0,213.939,223.591Zm-.579-2.809a.439.439,0,0,0,.116.016.483.483,0,1,0-.116-.016Zm-.089,1.72a.476.476,0,0,0,.473-.479V222a.476.476,0,1,0-.952,0v.021A.484.484,0,0,0,213.271,222.5Zm.584-3.35a.486.486,0,0,0,.221.053.472.472,0,1,0-.221-.053Zm.884,7.179a.476.476,0,0,0,.321.831.449.449,0,0,0,.316-.121.475.475,0,0,0,.037-.673A.48.48,0,0,0,214.739,226.331Zm4.718-10.84a.216.216,0,0,0,.058-.005.477.477,0,1,0-.531-.415A.481.481,0,0,0,219.456,215.491Zm1.641-.005c.021,0,.037.005.058.005a.491.491,0,1,0-.058-.005Zm1.541.373a.456.456,0,0,0,.168.032.48.48,0,1,0-.168-.032Zm-4.828.037a.455.455,0,0,0,.168-.032.478.478,0,1,0-.337-.894.474.474,0,0,0-.273.615A.467.467,0,0,0,217.81,215.9ZM216.6,227.414a.476.476,0,1,0-.273.868.486.486,0,0,0,.394-.205A.47.47,0,0,0,216.6,227.414Zm-.284-10.729a.476.476,0,1,0-.389-.205A.457.457,0,0,0,216.311,216.685Z" transform="translate(-185.415 -209.143)" fill="#262626"/>
    </g>
  </g>
</svg>
