<?xml version="1.0" encoding="UTF-8" standalone="no"?>
<svg
   xmlns:dc="http://purl.org/dc/elements/1.1/"
   xmlns:cc="http://creativecommons.org/ns#"
   xmlns:rdf="http://www.w3.org/1999/02/22-rdf-syntax-ns#"
   xmlns:svg="http://www.w3.org/2000/svg"
   xmlns="http://www.w3.org/2000/svg"
   xmlns:sodipodi="http://sodipodi.sourceforge.net/DTD/sodipodi-0.dtd"
   xmlns:inkscape="http://www.inkscape.org/namespaces/inkscape"
   width="34"
   height="34"
   viewBox="0 0 34 34"
   version="1.1"
   id="svg29"
   sodipodi:docname="icon_iotube.svg"
   inkscape:version="1.0 (4035a4f, 2020-05-01)">
  <metadata
     id="metadata35">
    <rdf:RDF>
      <cc:Work
         rdf:about="">
        <dc:format>image/svg+xml</dc:format>
        <dc:type
           rdf:resource="http://purl.org/dc/dcmitype/StillImage" />
        <dc:title />
      </cc:Work>
    </rdf:RDF>
  </metadata>
  <defs
     id="defs33" />
  <sodipodi:namedview
     inkscape:document-rotation="0"
     pagecolor="#ffffff"
     bordercolor="#666666"
     borderopacity="1"
     objecttolerance="10"
     gridtolerance="10"
     guidetolerance="10"
     inkscape:pageopacity="0"
     inkscape:pageshadow="2"
     inkscape:window-width="1440"
     inkscape:window-height="855"
     id="namedview31"
     showgrid="false"
     inkscape:zoom="9.4166667"
     inkscape:cx="39.610619"
     inkscape:cy="17"
     inkscape:window-x="0"
     inkscape:window-y="23"
     inkscape:window-maximized="1"
     inkscape:current-layer="svg29" />
  <path
     style="fill:#44bac9;fill-opacity:1;stroke:#44c9ba;stroke-width:0.738835;stroke-opacity:1"
     id="减去_37"
     data-name="减去 37"
     d="m 10.166077,16.949935 a 9.2122852,9.2586493 0 1 1 9.212285,9.254204 9.2226031,9.2690187 0 0 1 -9.212285,-9.254204 z m 0.731088,0 a 8.4753022,8.517957 0 1 0 8.481197,-8.5224015 8.482672,8.525364 0 0 0 -8.481197,8.5224015 z m 1.473964,0 a 7.0013366,7.0365731 0 1 1 7.007233,7.032128 7.0064954,7.041758 0 0 1 -7.001336,-7.032128 z m 0.736984,0 a 6.2643538,6.2958813 0 1 0 6.264353,-6.295881 6.2695126,6.3010661 0 0 0 -6.258458,6.295881 z"
     fill="#33fe99" />
  <path
     id="矩形_1789"
     style="fill:#44c9ba;fill-opacity:1;stroke:none;stroke-width:0.738835;stroke-opacity:1"
     d="M 7.2181461,7.6868416 H 7.9551289 V 26.944832 H 7.2181461 Z" />
  <path
     id="矩形_1790"
     style="fill:#44c9ba;fill-opacity:1;stroke:none;stroke-width:0.738835;stroke-opacity:1"
     d="M 5.7441805,7.6868416 H 6.4811633 V 26.944832 H 5.7441805 Z" />
  <path
     id="矩形_1791"
     style="fill:#44c9ba;fill-opacity:1;stroke:none;stroke-width:0.738835;stroke-opacity:1"
     d="M 8.6921117,7.6868416 H 9.4290945 V 26.944832 H 8.6921117 Z" />
  <path
     style="fill:#44c9ba;fill-opacity:1;stroke:#44c9ba;stroke-width:0.738835;stroke-opacity:1"
     id="减去_36"
     data-name="减去 36"
     d="M 10.100484,26.944832 H 9.0591274 L 28.215521,7.6868421 h 1.04283 z"
     fill="#33fe99" />
  <path
     id="椭圆_2485"
     style="fill:none;stroke:#44b9ca;stroke-width:0.738835;stroke-opacity:1"
     d="m 24.16875,16.94549 a 4.7903882,4.8144974 0 0 1 -4.790388,4.814498 4.7903882,4.8144974 0 0 1 -4.790388,-4.814498 4.7903882,4.8144974 0 0 1 4.790388,-4.814497 4.7903882,4.8144974 0 0 1 4.790388,4.814497" />
  <path
     style="fill:#44c9ba;fill-opacity:1;stroke:#44c9ba;stroke-width:0.738835;stroke-opacity:1"
     id="路径_8185"
     data-name="路径 8185"
     d="m 19.37836,21.759988 a 4.7903882,4.8144974 0 1 1 4.790389,-4.814497 4.796284,4.820423 0 0 1 -4.790389,4.814497 z m 0,-8.888303 a 4.0534054,4.0738056 0 1 0 4.053405,4.073806 4.0578273,4.0782496 0 0 0 -4.053405,-4.074546 z"
     fill="#33fe99" />
  <g
     transform="matrix(0.73698279,0,0,0.74069192,16.798922,14.352328)"
     data-name="组 840"
     id="组_840"
     style="fill:#44c9ba;fill-opacity:1;stroke:#44c9ba;stroke-opacity:1">
    <path
       fill="#33fe99"
       transform="translate(-529.245,-532.921)"
       d="m 532.745,539.921 a 3.5,3.5 0 1 1 3.5,-3.5 3.5,3.5 0 0 1 -3.5,3.5 z"
       data-name="路径 8186"
       id="路径_8186"
       style="fill:#44c9ba;fill-opacity:1;stroke:#44c9ba;stroke-opacity:1" />
  </g>
</svg>
