<svg xmlns="http://www.w3.org/2000/svg" width="37" height="37" viewBox="0 0 37 37">
  <g id="icon_What_is_IoTeX" data-name="icon_What is IoTeX" transform="translate(-820 -339)">
    <circle id="椭圆_1" data-name="椭圆 1" cx="18.5" cy="18.5" r="18.5" transform="translate(820 339)" fill="none"/>
    <g id="组_4989" data-name="组 4989">
      <g id="多边形_5" data-name="多边形 5" transform="translate(821.059 354.291) rotate(-30)" fill="#fff">
        <path d="M 19.96370887756348 22.5 L 7.036290645599365 22.5 L 0.5797687172889709 11.5 L 7.036290645599365 0.5 L 19.96370887756348 0.5 L 26.42023086547852 11.5 L 19.96370887756348 22.5 Z" stroke="none"/>
        <path d="M 7.322580337524414 1 L 1.159538269042969 11.5 L 7.322580337524414 22 L 19.67741966247559 22 L 25.84046173095703 11.5 L 19.67741966247559 1 L 7.322580337524414 1 M 6.75 0 L 20.25 0 L 27 11.5 L 20.25 23 L 6.75 23 L 0 11.5 L 6.75 0 Z" stroke="none" fill="#262626"/>
      </g>
      <path id="路径_7588" data-name="路径 7588" d="M236.8,68.418a4.283,4.283,0,0,1,1.153-3.17A4.113,4.113,0,0,1,241.026,64a4.187,4.187,0,0,1,2.881.96,3.1,3.1,0,0,1,1.153,2.5,3.316,3.316,0,0,1-.48,1.729,7.184,7.184,0,0,1-1.729,1.729,3,3,0,0,0-1.249,2.4V73.6h-1.537v-.192a4.724,4.724,0,0,1,.288-1.921,6.13,6.13,0,0,1,1.153-1.345l.576-.576a2.952,2.952,0,0,0,1.249-2.209,1.911,1.911,0,0,0-.672-1.537,2.423,2.423,0,0,0-1.633-.576c-1.729,0-2.689,1.057-2.689,3.073H236.8Zm4.9,6.531v2.305h-1.729V74.949Z" transform="translate(597.398 287.209)" fill="#43c9ba"/>
    </g>
  </g>
</svg>
