<svg xmlns="http://www.w3.org/2000/svg" xmlns:xlink="http://www.w3.org/1999/xlink" width="37" height="37" viewBox="0 0 37 37">
  <defs>
    <clipPath id="clip-path">
      <rect width="21" height="2" fill="none"/>
    </clipPath>
    <clipPath id="clip-path-3">
      <rect width="13" height="2" fill="none"/>
    </clipPath>
  </defs>
  <g id="icon_Improve_the_Protocol_" data-name="icon_Improve the Protocol " transform="translate(-820 -339)">
    <circle id="椭圆_1" data-name="椭圆 1" cx="18.5" cy="18.5" r="18.5" transform="translate(820 339)" fill="none"/>
    <g id="重复网格_4" data-name="重复网格 4" transform="translate(828 347)" clip-path="url(#clip-path)">
      <g transform="translate(-828 -348)">
        <circle id="椭圆_25" data-name="椭圆 25" cx="0.5" cy="0.5" r="0.5" transform="translate(828 348)" fill="#262626"/>
      </g>
      <g transform="translate(-826 -348)">
        <circle id="椭圆_25-2" data-name="椭圆 25" cx="0.5" cy="0.5" r="0.5" transform="translate(828 348)" fill="#262626"/>
      </g>
      <g transform="translate(-824 -348)">
        <circle id="椭圆_25-3" data-name="椭圆 25" cx="0.5" cy="0.5" r="0.5" transform="translate(828 348)" fill="#262626"/>
      </g>
      <g transform="translate(-822 -348)">
        <circle id="椭圆_25-4" data-name="椭圆 25" cx="0.5" cy="0.5" r="0.5" transform="translate(828 348)" fill="#262626"/>
      </g>
      <g transform="translate(-820 -348)">
        <circle id="椭圆_25-5" data-name="椭圆 25" cx="0.5" cy="0.5" r="0.5" transform="translate(828 348)" fill="#262626"/>
      </g>
      <g transform="translate(-818 -348)">
        <circle id="椭圆_25-6" data-name="椭圆 25" cx="0.5" cy="0.5" r="0.5" transform="translate(828 348)" fill="#262626"/>
      </g>
      <g transform="translate(-816 -348)">
        <circle id="椭圆_25-7" data-name="椭圆 25" cx="0.5" cy="0.5" r="0.5" transform="translate(828 348)" fill="#262626"/>
      </g>
      <g transform="translate(-814 -348)">
        <circle id="椭圆_25-8" data-name="椭圆 25" cx="0.5" cy="0.5" r="0.5" transform="translate(828 348)" fill="#262626"/>
      </g>
      <g transform="translate(-812 -348)">
        <circle id="椭圆_25-9" data-name="椭圆 25" cx="0.5" cy="0.5" r="0.5" transform="translate(828 348)" fill="#262626"/>
      </g>
      <g transform="translate(-810 -348)">
        <circle id="椭圆_25-10" data-name="椭圆 25" cx="0.5" cy="0.5" r="0.5" transform="translate(828 348)" fill="#262626"/>
      </g>
      <g transform="translate(-808 -348)">
        <circle id="椭圆_25-11" data-name="椭圆 25" cx="0.5" cy="0.5" r="0.5" transform="translate(828 348)" fill="#262626"/>
      </g>
    </g>
    <g id="重复网格_5" data-name="重复网格 5" transform="translate(828 367)" clip-path="url(#clip-path)">
      <g transform="translate(-828 -348)">
        <circle id="椭圆_25-12" data-name="椭圆 25" cx="0.5" cy="0.5" r="0.5" transform="translate(828 348)" fill="#262626"/>
      </g>
      <g transform="translate(-826 -348)">
        <circle id="椭圆_25-13" data-name="椭圆 25" cx="0.5" cy="0.5" r="0.5" transform="translate(828 348)" fill="#262626"/>
      </g>
      <g transform="translate(-824 -348)">
        <circle id="椭圆_25-14" data-name="椭圆 25" cx="0.5" cy="0.5" r="0.5" transform="translate(828 348)" fill="#262626"/>
      </g>
      <g transform="translate(-822 -348)">
        <circle id="椭圆_25-15" data-name="椭圆 25" cx="0.5" cy="0.5" r="0.5" transform="translate(828 348)" fill="#262626"/>
      </g>
      <g transform="translate(-820 -348)">
        <circle id="椭圆_25-16" data-name="椭圆 25" cx="0.5" cy="0.5" r="0.5" transform="translate(828 348)" fill="#262626"/>
      </g>
      <g transform="translate(-818 -348)">
        <circle id="椭圆_25-17" data-name="椭圆 25" cx="0.5" cy="0.5" r="0.5" transform="translate(828 348)" fill="#262626"/>
      </g>
      <g transform="translate(-816 -348)">
        <circle id="椭圆_25-18" data-name="椭圆 25" cx="0.5" cy="0.5" r="0.5" transform="translate(828 348)" fill="#262626"/>
      </g>
      <g transform="translate(-814 -348)">
        <circle id="椭圆_25-19" data-name="椭圆 25" cx="0.5" cy="0.5" r="0.5" transform="translate(828 348)" fill="#262626"/>
      </g>
      <g transform="translate(-812 -348)">
        <circle id="椭圆_25-20" data-name="椭圆 25" cx="0.5" cy="0.5" r="0.5" transform="translate(828 348)" fill="#262626"/>
      </g>
      <g transform="translate(-810 -348)">
        <circle id="椭圆_25-21" data-name="椭圆 25" cx="0.5" cy="0.5" r="0.5" transform="translate(828 348)" fill="#262626"/>
      </g>
      <g transform="translate(-808 -348)">
        <circle id="椭圆_25-22" data-name="椭圆 25" cx="0.5" cy="0.5" r="0.5" transform="translate(828 348)" fill="#262626"/>
      </g>
    </g>
    <g id="重复网格_7" data-name="重复网格 7" transform="translate(848 362) rotate(-90)" clip-path="url(#clip-path-3)">
      <g transform="translate(-828 -348)">
        <circle id="椭圆_25-23" data-name="椭圆 25" cx="0.5" cy="0.5" r="0.5" transform="translate(828 348)" fill="#262626"/>
      </g>
      <g transform="translate(-826 -348)">
        <circle id="椭圆_25-24" data-name="椭圆 25" cx="0.5" cy="0.5" r="0.5" transform="translate(828 348)" fill="#262626"/>
      </g>
      <g transform="translate(-824 -348)">
        <circle id="椭圆_25-25" data-name="椭圆 25" cx="0.5" cy="0.5" r="0.5" transform="translate(828 348)" fill="#262626"/>
      </g>
      <g transform="translate(-822 -348)">
        <circle id="椭圆_25-26" data-name="椭圆 25" cx="0.5" cy="0.5" r="0.5" transform="translate(828 348)" fill="#262626"/>
      </g>
      <g transform="translate(-820 -348)">
        <circle id="椭圆_25-27" data-name="椭圆 25" cx="0.5" cy="0.5" r="0.5" transform="translate(828 348)" fill="#262626"/>
      </g>
      <g transform="translate(-818 -348)">
        <circle id="椭圆_25-28" data-name="椭圆 25" cx="0.5" cy="0.5" r="0.5" transform="translate(828 348)" fill="#262626"/>
      </g>
      <g transform="translate(-816 -348)">
        <circle id="椭圆_25-29" data-name="椭圆 25" cx="0.5" cy="0.5" r="0.5" transform="translate(828 348)" fill="#262626"/>
      </g>
    </g>
    <g id="重复网格_8" data-name="重复网格 8" transform="translate(828 366) rotate(-90)" clip-path="url(#clip-path-3)">
      <g transform="translate(-828 -348)">
        <circle id="椭圆_25-30" data-name="椭圆 25" cx="0.5" cy="0.5" r="0.5" transform="translate(828 348)" fill="#262626"/>
      </g>
      <g transform="translate(-826 -348)">
        <circle id="椭圆_25-31" data-name="椭圆 25" cx="0.5" cy="0.5" r="0.5" transform="translate(828 348)" fill="#262626"/>
      </g>
      <g transform="translate(-824 -348)">
        <circle id="椭圆_25-32" data-name="椭圆 25" cx="0.5" cy="0.5" r="0.5" transform="translate(828 348)" fill="#262626"/>
      </g>
      <g transform="translate(-822 -348)">
        <circle id="椭圆_25-33" data-name="椭圆 25" cx="0.5" cy="0.5" r="0.5" transform="translate(828 348)" fill="#262626"/>
      </g>
      <g transform="translate(-820 -348)">
        <circle id="椭圆_25-34" data-name="椭圆 25" cx="0.5" cy="0.5" r="0.5" transform="translate(828 348)" fill="#262626"/>
      </g>
      <g transform="translate(-818 -348)">
        <circle id="椭圆_25-35" data-name="椭圆 25" cx="0.5" cy="0.5" r="0.5" transform="translate(828 348)" fill="#262626"/>
      </g>
      <g transform="translate(-816 -348)">
        <circle id="椭圆_25-36" data-name="椭圆 25" cx="0.5" cy="0.5" r="0.5" transform="translate(828 348)" fill="#262626"/>
      </g>
    </g>
    <g id="矩形_84" data-name="矩形 84" transform="translate(826 346)" fill="#fff" stroke="#262626" stroke-width="1">
      <rect width="10" height="10" stroke="none"/>
      <rect x="0.5" y="0.5" width="9" height="9" fill="none"/>
    </g>
    <rect id="矩形_85" data-name="矩形 85" width="10" height="10" transform="translate(841 359)" fill="#43c9ba"/>
  </g>
</svg>
