<svg xmlns="http://www.w3.org/2000/svg" xmlns:xlink="http://www.w3.org/1999/xlink" width="37" height="37" viewBox="0 0 37 37">
  <defs>
    <clipPath id="clip-path">
      <circle id="椭圆_4" data-name="椭圆 4" cx="18.5" cy="18.5" r="18.5" transform="translate(97 97)" fill="#43c9ba" opacity="0.1"/>
    </clipPath>
  </defs>
  <g id="icon_Run_A_Fullnode" data-name="icon_Run A Fullnode" transform="translate(-820 -339)">
    <circle id="椭圆_1" data-name="椭圆 1" cx="18.5" cy="18.5" r="18.5" transform="translate(820 339)" fill="none"/>
    <g id="组_4978" data-name="组 4978" transform="translate(825.702 344.702)">
      <path id="路径_7575" data-name="路径 7575" d="M439.875,858.822m-1.856,0a1.856,1.856,0,1,0,1.856-1.856A1.856,1.856,0,0,0,438.019,858.822Z" transform="translate(-427.03 -835.467)" fill="#43c9ba"/>
      <path id="路径_7576" data-name="路径 7576" d="M439.875,20.928m-1.856,0a1.856,1.856,0,1,0,1.856-1.856,1.856,1.856,0,0,0-1.856,1.856Z" transform="translate(-427.03 -18.593)" fill="#43c9ba"/>
      <path id="路径_7577" data-name="路径 7577" d="M858.822,439.875m-1.856,0a1.856,1.856,0,1,0,1.856-1.856A1.856,1.856,0,0,0,856.966,439.875Z" transform="translate(-835.467 -427.03)" fill="#43c9ba"/>
      <path id="路径_7578" data-name="路径 7578" d="M20.928,439.875m-1.856,0a1.856,1.856,0,1,0,1.856-1.856A1.856,1.856,0,0,0,19.072,439.875Z" transform="translate(-18.593 -427.03)" fill="#43c9ba"/>
      <path id="路径_7579" data-name="路径 7579" d="M15.179,23.355ZM18.323,19a2.332,2.332,0,1,0,1.951-1.057A2.268,2.268,0,0,0,19,18.323L17.33,16.657a.476.476,0,0,0-.673.673Zm2.929.3a1.39,1.39,0,0,1,0,1.956,1.381,1.381,0,1,1-.978-2.355A1.329,1.329,0,0,1,21.252,19.3Zm-4.6-10.268a.47.47,0,0,0,.673,0L19,7.366A2.332,2.332,0,1,0,17.94,5.416a2.268,2.268,0,0,0,.384,1.278L16.657,8.36A.479.479,0,0,0,16.657,9.033Zm2.645-4.6a1.384,1.384,0,0,1,1.956,0,1.39,1.39,0,0,1,0,1.956A1.383,1.383,0,0,1,19.3,4.438ZM9.033,16.657a.479.479,0,0,0-.673,0L6.693,18.323A2.332,2.332,0,1,0,7.75,20.274,2.268,2.268,0,0,0,7.366,19L9.033,17.33A.479.479,0,0,0,9.033,16.657Zm-2.645,4.6a1.384,1.384,0,0,1-1.956,0,1.39,1.39,0,0,1,0-1.956,1.383,1.383,0,1,1,1.956,1.956ZM7.061,3.759A2.335,2.335,0,1,0,5.41,7.745a2.268,2.268,0,0,0,1.278-.384L8.355,9.028a.47.47,0,0,0,.673,0,.479.479,0,0,0,0-.673L7.366,6.693A2.323,2.323,0,0,0,7.75,5.416a2.353,2.353,0,0,0-.689-1.656ZM4.438,6.388a1.39,1.39,0,0,1,0-1.956,1.381,1.381,0,1,1,.978,2.355A1.329,1.329,0,0,1,4.438,6.388Z" transform="translate(0 0)" fill="#262626"/>
      <g id="椭圆_30" data-name="椭圆 30" transform="translate(9.277 9.241)" fill="#fff" stroke="#262626" stroke-width="1">
        <circle cx="3.556" cy="3.556" r="3.556" stroke="none"/>
        <circle cx="3.556" cy="3.556" r="3.056" fill="none"/>
      </g>
      <path id="路径_7587" data-name="路径 7587" d="M12.845,18.234a.48.48,0,0,0-.478.478v2.355a2.334,2.334,0,1,0,.957,0V18.712a.48.48,0,0,0-.478-.478Zm1.383,5.121a1.383,1.383,0,1,1-1.383-1.383A1.384,1.384,0,0,1,14.228,23.355Zm2.766-14.18ZM10.51,2.334a2.34,2.34,0,0,0,1.856,2.287V6.977a.478.478,0,1,0,.957,0V4.622A2.335,2.335,0,1,0,10.51,2.334Zm3.717,0A1.383,1.383,0,1,1,12.845.952,1.384,1.384,0,0,1,14.228,2.334Zm6.84,10.032H18.712a.478.478,0,1,0,0,.957h2.355a2.334,2.334,0,1,0,0-.957Zm3.67.478a1.383,1.383,0,1,1-1.383-1.383A1.384,1.384,0,0,1,24.738,12.845Zm-22.4,2.334a2.34,2.34,0,0,0,2.287-1.856H6.977a.478.478,0,1,0,0-.957H4.622a2.335,2.335,0,1,0-2.287,2.813Zm0-3.717A1.383,1.383,0,1,1,.952,12.845a1.384,1.384,0,0,1,1.383-1.383Z" fill="#43c9ba"/>
    </g>
  </g>
</svg>
