<svg xmlns="http://www.w3.org/2000/svg" width="37" height="37" viewBox="0 0 37 37">
  <g id="icon_Undestand_IOTX_Economics" data-name="icon_Undestand IOTX Economics" transform="translate(-820 -339)">
    <circle id="椭圆_1" data-name="椭圆 1" cx="18.5" cy="18.5" r="18.5" transform="translate(820 339)" fill="none"/>
    <g id="组_4980" data-name="组 4980" transform="translate(825.533 341.343)">
      <path id="路径_7571" data-name="路径 7571" d="M609.613,21.854V31.82h9.971a9.965,9.965,0,0,0-9.971-9.966Z" transform="translate(-594.25 -18.463)" fill="#43c9ba"/>
      <path id="路径_7572" data-name="路径 7572" d="M601.594,13.357A10.446,10.446,0,0,0,591.151,2.914a.479.479,0,0,0-.477.477v9.966a.479.479,0,0,0,.477.477h9.966A.476.476,0,0,0,601.594,13.357Zm-9.966-.472V3.879a9.5,9.5,0,0,1,9.006,9.006Z" transform="translate(-575.787 0)" fill="none"/>
      <path id="路径_7573" data-name="路径 7573" d="M22.916,123.019a.477.477,0,0,0-.955,0,10.506,10.506,0,1,1-10.506-10.506.477.477,0,1,0,0-.955,11.461,11.461,0,1,0,11.461,11.461Z" transform="translate(0 -105.906)" fill="#262626"/>
      <path id="路径_7574" data-name="路径 7574" d="M436.094,177.133a.477.477,0,1,0,.477.477A.476.476,0,0,0,436.094,177.133Zm0-3.137a.475.475,0,1,0,.477.477A.476.476,0,0,0,436.094,174Zm0,4.7a.477.477,0,1,0,.477.477A.479.479,0,0,0,436.094,178.7Zm0-3.137a.477.477,0,1,0,.477.477A.472.472,0,0,0,436.094,175.565Zm0,6.273a.477.477,0,1,0,.477.477A.479.479,0,0,0,436.094,181.838Zm0-1.568a.477.477,0,1,0,.477.477A.476.476,0,0,0,436.094,180.27Zm0,3.137a.475.475,0,0,0-.336.813.472.472,0,0,0,.336.136.5.5,0,0,0,.336-.136.469.469,0,0,0,0-.671A.468.468,0,0,0,436.094,183.407Zm9.893.477a.477.477,0,1,0-.477.477A.476.476,0,0,0,445.986,183.884Zm-6.279,0a.477.477,0,1,0-.477.477A.479.479,0,0,0,439.708,183.884Zm1.574,0a.477.477,0,1,0-.477.477A.479.479,0,0,0,441.281,183.884Zm1.568,0a.477.477,0,1,0-.477.477A.479.479,0,0,0,442.849,183.884Zm1.091.477a.477.477,0,1,0-.477-.477A.482.482,0,0,0,443.94,184.361Zm-5.8-.477a.477.477,0,1,0-.477.477A.476.476,0,0,0,438.139,183.884Z" transform="translate(-424.638 -166.771)"/>
    </g>
  </g>
</svg>
